<svg id="visual" viewBox="0 0 960 540" width="960" height="540" xmlns="http://www.w3.org/2000/svg" xmlns:xlink="http://www.w3.org/1999/xlink" version="1.1"><rect x="0" y="0" width="960" height="540" fill="#b3b0b0"></rect><defs><linearGradient id="grad1_0" x1="43.8%" y1="0%" x2="100%" y2="100%"><stop offset="14.444444444444446%" stop-color="#373a3d" stop-opacity="1"></stop><stop offset="85.55555555555554%" stop-color="#373a3d" stop-opacity="1"></stop></linearGradient></defs><defs><linearGradient id="grad1_1" x1="43.8%" y1="0%" x2="100%" y2="100%"><stop offset="14.444444444444446%" stop-color="#373a3d" stop-opacity="1"></stop><stop offset="85.55555555555554%" stop-color="#48494c" stop-opacity="1"></stop></linearGradient></defs><defs><linearGradient id="grad1_2" x1="43.8%" y1="0%" x2="100%" y2="100%"><stop offset="14.444444444444446%" stop-color="#59595c" stop-opacity="1"></stop><stop offset="85.55555555555554%" stop-color="#48494c" stop-opacity="1"></stop></linearGradient></defs><defs><linearGradient id="grad1_3" x1="43.8%" y1="0%" x2="100%" y2="100%"><stop offset="14.444444444444446%" stop-color="#59595c" stop-opacity="1"></stop><stop offset="85.55555555555554%" stop-color="#6b696c" stop-opacity="1"></stop></linearGradient></defs><defs><linearGradient id="grad1_4" x1="43.8%" y1="0%" x2="100%" y2="100%"><stop offset="14.444444444444446%" stop-color="#7d7a7c" stop-opacity="1"></stop><stop offset="85.55555555555554%" stop-color="#6b696c" stop-opacity="1"></stop></linearGradient></defs><defs><linearGradient id="grad1_5" x1="43.8%" y1="0%" x2="100%" y2="100%"><stop offset="14.444444444444446%" stop-color="#7d7a7c" stop-opacity="1"></stop><stop offset="85.55555555555554%" stop-color="#8f8c8d" stop-opacity="1"></stop></linearGradient></defs><defs><linearGradient id="grad1_6" x1="43.8%" y1="0%" x2="100%" y2="100%"><stop offset="14.444444444444446%" stop-color="#a19e9e" stop-opacity="1"></stop><stop offset="85.55555555555554%" stop-color="#8f8c8d" stop-opacity="1"></stop></linearGradient></defs><defs><linearGradient id="grad1_7" x1="43.8%" y1="0%" x2="100%" y2="100%"><stop offset="14.444444444444446%" stop-color="#a19e9e" stop-opacity="1"></stop><stop offset="85.55555555555554%" stop-color="#b3b0b0" stop-opacity="1"></stop></linearGradient></defs><defs><linearGradient id="grad2_0" x1="0%" y1="0%" x2="56.3%" y2="100%"><stop offset="14.444444444444446%" stop-color="#373a3d" stop-opacity="1"></stop><stop offset="85.55555555555554%" stop-color="#373a3d" stop-opacity="1"></stop></linearGradient></defs><defs><linearGradient id="grad2_1" x1="0%" y1="0%" x2="56.3%" y2="100%"><stop offset="14.444444444444446%" stop-color="#48494c" stop-opacity="1"></stop><stop offset="85.55555555555554%" stop-color="#373a3d" stop-opacity="1"></stop></linearGradient></defs><defs><linearGradient id="grad2_2" x1="0%" y1="0%" x2="56.3%" y2="100%"><stop offset="14.444444444444446%" stop-color="#48494c" stop-opacity="1"></stop><stop offset="85.55555555555554%" stop-color="#59595c" stop-opacity="1"></stop></linearGradient></defs><defs><linearGradient id="grad2_3" x1="0%" y1="0%" x2="56.3%" y2="100%"><stop offset="14.444444444444446%" stop-color="#6b696c" stop-opacity="1"></stop><stop offset="85.55555555555554%" stop-color="#59595c" stop-opacity="1"></stop></linearGradient></defs><defs><linearGradient id="grad2_4" x1="0%" y1="0%" x2="56.3%" y2="100%"><stop offset="14.444444444444446%" stop-color="#6b696c" stop-opacity="1"></stop><stop offset="85.55555555555554%" stop-color="#7d7a7c" stop-opacity="1"></stop></linearGradient></defs><defs><linearGradient id="grad2_5" x1="0%" y1="0%" x2="56.3%" y2="100%"><stop offset="14.444444444444446%" stop-color="#8f8c8d" stop-opacity="1"></stop><stop offset="85.55555555555554%" stop-color="#7d7a7c" stop-opacity="1"></stop></linearGradient></defs><defs><linearGradient id="grad2_6" x1="0%" y1="0%" x2="56.3%" y2="100%"><stop offset="14.444444444444446%" stop-color="#8f8c8d" stop-opacity="1"></stop><stop offset="85.55555555555554%" stop-color="#a19e9e" stop-opacity="1"></stop></linearGradient></defs><defs><linearGradient id="grad2_7" x1="0%" y1="0%" x2="56.3%" y2="100%"><stop offset="14.444444444444446%" stop-color="#b3b0b0" stop-opacity="1"></stop><stop offset="85.55555555555554%" stop-color="#a19e9e" stop-opacity="1"></stop></linearGradient></defs><g transform="translate(960, 0)"><path d="M0 486C-56.1 453.2 -112.3 420.3 -162.3 391.7C-212.3 363.1 -256.2 338.8 -307.6 307.6C-359 276.4 -418 238.4 -449 186C-480 133.6 -483 66.8 -486 0L0 0Z" fill="#aaa7a7"></path><path d="M0 425.3C-49.1 396.5 -98.2 367.8 -142 342.8C-185.7 317.7 -224.1 296.4 -269.1 269.1C-314.1 241.9 -365.8 208.6 -392.9 162.7C-420 116.9 -422.6 58.4 -425.2 0L0 0Z" fill="#989596"></path><path d="M0 364.5C-42.1 339.9 -84.2 315.2 -121.7 293.8C-159.2 272.3 -192.1 254.1 -230.7 230.7C-269.3 207.3 -313.5 178.8 -336.8 139.5C-360 100.2 -362.2 50.1 -364.5 0L0 0Z" fill="#868385"></path><path d="M0 303.8C-35.1 283.2 -70.2 262.7 -101.4 244.8C-132.7 227 -160.1 211.7 -192.2 192.2C-224.4 172.8 -261.3 149 -280.6 116.2C-300 83.5 -301.9 41.7 -303.7 0L0 0Z" fill="#747274"></path><path d="M0 243C-28.1 226.6 -56.1 210.2 -81.1 195.9C-106.1 181.6 -128.1 169.4 -153.8 153.8C-179.5 138.2 -209 119.2 -224.5 93C-240 66.8 -241.5 33.4 -243 0L0 0Z" fill="#626164"></path><path d="M0 182.3C-21 169.9 -42.1 157.6 -60.8 146.9C-79.6 136.2 -96.1 127 -115.3 115.3C-134.6 103.7 -156.8 89.4 -168.4 69.7C-180 50.1 -181.1 25 -182.2 0L0 0Z" fill="#505154"></path><path d="M0 121.5C-14 113.3 -28.1 105.1 -40.6 97.9C-53.1 90.8 -64 84.7 -76.9 76.9C-89.8 69.1 -104.5 59.6 -112.3 46.5C-120 33.4 -120.7 16.7 -121.5 0L0 0Z" fill="#3f4245"></path><path d="M0 60.8C-7 56.6 -14 52.5 -20.3 49C-26.5 45.4 -32 42.3 -38.4 38.4C-44.9 34.6 -52.3 29.8 -56.1 23.2C-60 16.7 -60.4 8.3 -60.7 0L0 0Z" fill="#373a3d"></path></g><g transform="translate(0, 540)"><path d="M0 -486C68.7 -484.9 137.4 -483.8 186 -449C234.6 -414.2 263.2 -345.7 294.2 -294.2C325.1 -242.6 358.4 -208.1 390.8 -161.9C423.2 -115.7 454.6 -57.8 486 0L0 0Z" fill="#aaa7a7"></path><path d="M0 -425.2C60.1 -424.3 120.2 -423.3 162.7 -392.9C205.3 -362.4 230.3 -302.5 257.4 -257.4C284.5 -212.3 313.6 -182.1 342 -141.6C370.3 -101.2 397.8 -50.6 425.3 0L0 0Z" fill="#989596"></path><path d="M0 -364.5C51.5 -363.7 103 -362.9 139.5 -336.8C176 -310.7 197.4 -259.3 220.6 -220.6C243.8 -182 268.8 -156.1 293.1 -121.4C317.4 -86.8 340.9 -43.4 364.5 0L0 0Z" fill="#868385"></path><path d="M0 -303.7C42.9 -303.1 85.8 -302.4 116.2 -280.6C146.6 -258.9 164.5 -216.1 183.8 -183.8C203.2 -151.6 224 -130 244.3 -101.2C264.5 -72.3 284.1 -36.1 303.8 0L0 0Z" fill="#747274"></path><path d="M0 -243C34.3 -242.5 68.7 -241.9 93 -224.5C117.3 -207.1 131.6 -172.8 147.1 -147.1C162.6 -121.3 179.2 -104 195.4 -80.9C211.6 -57.8 227.3 -28.9 243 0L0 0Z" fill="#626164"></path><path d="M0 -182.2C25.8 -181.8 51.5 -181.4 69.7 -168.4C88 -155.3 98.7 -129.6 110.3 -110.3C121.9 -91 134.4 -78 146.6 -60.7C158.7 -43.4 170.5 -21.7 182.3 0L0 0Z" fill="#505154"></path><path d="M0 -121.5C17.2 -121.2 34.3 -121 46.5 -112.3C58.7 -103.6 65.8 -86.4 73.5 -73.5C81.3 -60.7 89.6 -52 97.7 -40.5C105.8 -28.9 113.6 -14.5 121.5 0L0 0Z" fill="#3f4245"></path><path d="M0 -60.7C8.6 -60.6 17.2 -60.5 23.2 -56.1C29.3 -51.8 32.9 -43.2 36.8 -36.8C40.6 -30.3 44.8 -26 48.9 -20.2C52.9 -14.5 56.8 -7.2 60.8 0L0 0Z" fill="#373a3d"></path></g></svg>